<mxfile host="app.diagrams.net" agent="Mozilla/5.0 (Windows NT 10.0; Win64; x64) AppleWebKit/537.36 (KHTML, like Gecko) Chrome/135.0.0.0 Safari/537.36" version="26.2.13">
  <diagram name="Page-1" id="e7e014a7-5840-1c2e-5031-d8a46d1fe8dd">
    <mxGraphModel dx="809" dy="844" grid="1" gridSize="10" guides="1" tooltips="1" connect="1" arrows="1" fold="1" page="1" pageScale="1" pageWidth="1169" pageHeight="826" background="none" math="0" shadow="0">
      <root>
        <mxCell id="0" />
        <mxCell id="1" parent="0" />
        <mxCell id="UVNxHXpTc3Y-ItivbAYO-97" value="Khách vãng lai" style="swimlane;whiteSpace=wrap" vertex="1" parent="1">
          <mxGeometry x="449" y="138" width="321" height="992" as="geometry" />
        </mxCell>
        <mxCell id="UVNxHXpTc3Y-ItivbAYO-98" value="" style="edgeStyle=orthogonalEdgeStyle;rounded=0;orthogonalLoop=1;jettySize=auto;html=1;" edge="1" parent="UVNxHXpTc3Y-ItivbAYO-97" source="UVNxHXpTc3Y-ItivbAYO-99">
          <mxGeometry relative="1" as="geometry">
            <mxPoint x="123.5" y="52" as="targetPoint" />
          </mxGeometry>
        </mxCell>
        <mxCell id="UVNxHXpTc3Y-ItivbAYO-99" value="" style="ellipse;shape=startState;fillColor=#000000;strokeColor=#ff0000;" vertex="1" parent="UVNxHXpTc3Y-ItivbAYO-97">
          <mxGeometry x="28.5" y="27" width="50" height="50" as="geometry" />
        </mxCell>
        <mxCell id="UVNxHXpTc3Y-ItivbAYO-100" value="" style="edgeStyle=orthogonalEdgeStyle;rounded=0;orthogonalLoop=1;jettySize=auto;html=1;" edge="1" parent="UVNxHXpTc3Y-ItivbAYO-97" source="UVNxHXpTc3Y-ItivbAYO-101" target="UVNxHXpTc3Y-ItivbAYO-102">
          <mxGeometry relative="1" as="geometry" />
        </mxCell>
        <mxCell id="UVNxHXpTc3Y-ItivbAYO-101" value="Truy cập trang web" style="rounded=1;whiteSpace=wrap;html=1;" vertex="1" parent="UVNxHXpTc3Y-ItivbAYO-97">
          <mxGeometry x="115.5" y="27" width="94.5" height="43" as="geometry" />
        </mxCell>
        <mxCell id="UVNxHXpTc3Y-ItivbAYO-102" value="Nhấp nút Register" style="whiteSpace=wrap;html=1;rounded=1;" vertex="1" parent="UVNxHXpTc3Y-ItivbAYO-97">
          <mxGeometry x="221" y="29.5" width="84.5" height="38" as="geometry" />
        </mxCell>
        <mxCell id="UVNxHXpTc3Y-ItivbAYO-103" value="" style="edgeStyle=orthogonalEdgeStyle;rounded=0;orthogonalLoop=1;jettySize=auto;html=1;" edge="1" parent="UVNxHXpTc3Y-ItivbAYO-97" source="UVNxHXpTc3Y-ItivbAYO-104" target="UVNxHXpTc3Y-ItivbAYO-105">
          <mxGeometry relative="1" as="geometry" />
        </mxCell>
        <mxCell id="UVNxHXpTc3Y-ItivbAYO-104" value="Nhập thông tin đăng ký" style="rounded=1;whiteSpace=wrap;html=1;" vertex="1" parent="UVNxHXpTc3Y-ItivbAYO-97">
          <mxGeometry x="40" y="112" width="106" height="40" as="geometry" />
        </mxCell>
        <mxCell id="UVNxHXpTc3Y-ItivbAYO-105" value="Nhấp nút Register" style="rounded=1;whiteSpace=wrap;html=1;" vertex="1" parent="UVNxHXpTc3Y-ItivbAYO-97">
          <mxGeometry x="203.25" y="112" width="102.25" height="40" as="geometry" />
        </mxCell>
        <mxCell id="UVNxHXpTc3Y-ItivbAYO-106" value="Hiển thị lỗi" style="rounded=1;whiteSpace=wrap;html=1;" vertex="1" parent="UVNxHXpTc3Y-ItivbAYO-97">
          <mxGeometry x="141" y="172" width="80" height="40" as="geometry" />
        </mxCell>
        <mxCell id="UVNxHXpTc3Y-ItivbAYO-107" value="" style="endArrow=classic;html=1;rounded=0;entryX=0.5;entryY=1;entryDx=0;entryDy=0;exitX=0;exitY=0.5;exitDx=0;exitDy=0;" edge="1" parent="UVNxHXpTc3Y-ItivbAYO-97" source="UVNxHXpTc3Y-ItivbAYO-106" target="UVNxHXpTc3Y-ItivbAYO-104">
          <mxGeometry width="50" height="50" relative="1" as="geometry">
            <mxPoint x="41" y="272" as="sourcePoint" />
            <mxPoint x="91" y="222" as="targetPoint" />
            <Array as="points">
              <mxPoint x="93" y="192" />
            </Array>
          </mxGeometry>
        </mxCell>
        <mxCell id="UVNxHXpTc3Y-ItivbAYO-108" value="Hiển thị lỗi trùng lặp" style="whiteSpace=wrap;html=1;rounded=1;" vertex="1" parent="UVNxHXpTc3Y-ItivbAYO-97">
          <mxGeometry x="141" y="230" width="89" height="40" as="geometry" />
        </mxCell>
        <mxCell id="UVNxHXpTc3Y-ItivbAYO-109" value="" style="endArrow=classic;html=1;rounded=0;entryX=0.25;entryY=1;entryDx=0;entryDy=0;exitX=0;exitY=0.5;exitDx=0;exitDy=0;" edge="1" parent="UVNxHXpTc3Y-ItivbAYO-97" source="UVNxHXpTc3Y-ItivbAYO-108" target="UVNxHXpTc3Y-ItivbAYO-104">
          <mxGeometry width="50" height="50" relative="1" as="geometry">
            <mxPoint x="301" y="282" as="sourcePoint" />
            <mxPoint x="351" y="232" as="targetPoint" />
            <Array as="points">
              <mxPoint x="67" y="250" />
            </Array>
          </mxGeometry>
        </mxCell>
        <mxCell id="UVNxHXpTc3Y-ItivbAYO-110" value="" style="edgeStyle=orthogonalEdgeStyle;rounded=0;orthogonalLoop=1;jettySize=auto;html=1;" edge="1" parent="UVNxHXpTc3Y-ItivbAYO-97" source="UVNxHXpTc3Y-ItivbAYO-111" target="UVNxHXpTc3Y-ItivbAYO-112">
          <mxGeometry relative="1" as="geometry" />
        </mxCell>
        <mxCell id="UVNxHXpTc3Y-ItivbAYO-111" value="Nhập thông tin đăng nhập" style="rounded=1;whiteSpace=wrap;html=1;" vertex="1" parent="UVNxHXpTc3Y-ItivbAYO-97">
          <mxGeometry x="195" y="432" width="91" height="38" as="geometry" />
        </mxCell>
        <mxCell id="UVNxHXpTc3Y-ItivbAYO-112" value="Nhấp nút &quot;LOGIN&quot;" style="whiteSpace=wrap;html=1;rounded=1;" vertex="1" parent="UVNxHXpTc3Y-ItivbAYO-97">
          <mxGeometry x="45" y="430" width="84.5" height="40" as="geometry" />
        </mxCell>
        <mxCell id="UVNxHXpTc3Y-ItivbAYO-113" value="Hiển thị lỗi đăng nhập" style="rounded=1;whiteSpace=wrap;html=1;" vertex="1" parent="UVNxHXpTc3Y-ItivbAYO-97">
          <mxGeometry x="171" y="552" width="109" height="38" as="geometry" />
        </mxCell>
        <mxCell id="UVNxHXpTc3Y-ItivbAYO-114" value="" style="endArrow=classic;html=1;rounded=0;exitX=0;exitY=0.5;exitDx=0;exitDy=0;entryX=0.5;entryY=0;entryDx=0;entryDy=0;" edge="1" parent="UVNxHXpTc3Y-ItivbAYO-97" source="UVNxHXpTc3Y-ItivbAYO-113" target="UVNxHXpTc3Y-ItivbAYO-111">
          <mxGeometry width="50" height="50" relative="1" as="geometry">
            <mxPoint x="131" y="572" as="sourcePoint" />
            <mxPoint x="181" y="522" as="targetPoint" />
            <Array as="points">
              <mxPoint x="21" y="571" />
              <mxPoint x="21" y="392" />
              <mxPoint x="241" y="392" />
            </Array>
          </mxGeometry>
        </mxCell>
        <mxCell id="UVNxHXpTc3Y-ItivbAYO-115" value="" style="ellipse;whiteSpace=wrap;html=1;aspect=fixed;fillColor=#000000;strokeColor=#FF3333;" vertex="1" parent="UVNxHXpTc3Y-ItivbAYO-97">
          <mxGeometry x="78.5" y="590" width="44" height="44" as="geometry" />
        </mxCell>
        <mxCell id="UVNxHXpTc3Y-ItivbAYO-116" value="Hệ thống" style="swimlane;whiteSpace=wrap;fontColor=#000000;" vertex="1" parent="1">
          <mxGeometry x="770" y="138" width="375" height="992" as="geometry" />
        </mxCell>
        <mxCell id="UVNxHXpTc3Y-ItivbAYO-117" value="Hiển thị form đăng ký" style="whiteSpace=wrap;html=1;rounded=1;" vertex="1" parent="UVNxHXpTc3Y-ItivbAYO-116">
          <mxGeometry x="80" y="29.5" width="120" height="38" as="geometry" />
        </mxCell>
        <mxCell id="UVNxHXpTc3Y-ItivbAYO-118" value="" style="edgeStyle=orthogonalEdgeStyle;rounded=0;orthogonalLoop=1;jettySize=auto;html=1;" edge="1" parent="UVNxHXpTc3Y-ItivbAYO-116" source="UVNxHXpTc3Y-ItivbAYO-119" target="UVNxHXpTc3Y-ItivbAYO-120">
          <mxGeometry relative="1" as="geometry" />
        </mxCell>
        <mxCell id="UVNxHXpTc3Y-ItivbAYO-119" value="Kiểm tra tính hợp lệ của dữ liệu" style="rounded=1;whiteSpace=wrap;html=1;" vertex="1" parent="UVNxHXpTc3Y-ItivbAYO-116">
          <mxGeometry x="20" y="113" width="100" height="38" as="geometry" />
        </mxCell>
        <mxCell id="UVNxHXpTc3Y-ItivbAYO-120" value="Dữ liệu hợp lệ?" style="rhombus;whiteSpace=wrap;html=1;rounded=1;fillColor=#FFFF66;" vertex="1" parent="UVNxHXpTc3Y-ItivbAYO-116">
          <mxGeometry x="210" y="92" width="80" height="80" as="geometry" />
        </mxCell>
        <mxCell id="UVNxHXpTc3Y-ItivbAYO-121" value="" style="edgeStyle=orthogonalEdgeStyle;rounded=0;orthogonalLoop=1;jettySize=auto;html=1;" edge="1" parent="UVNxHXpTc3Y-ItivbAYO-116" source="UVNxHXpTc3Y-ItivbAYO-122" target="UVNxHXpTc3Y-ItivbAYO-127">
          <mxGeometry relative="1" as="geometry" />
        </mxCell>
        <mxCell id="UVNxHXpTc3Y-ItivbAYO-122" value="Kiểm tra tên người dùng và email đã tồn tại chưa" style="rounded=1;whiteSpace=wrap;html=1;" vertex="1" parent="UVNxHXpTc3Y-ItivbAYO-116">
          <mxGeometry x="217" y="230" width="144" height="40" as="geometry" />
        </mxCell>
        <mxCell id="UVNxHXpTc3Y-ItivbAYO-123" value="" style="endArrow=classic;html=1;rounded=0;exitX=1;exitY=0.5;exitDx=0;exitDy=0;entryX=0.5;entryY=0;entryDx=0;entryDy=0;" edge="1" parent="UVNxHXpTc3Y-ItivbAYO-116" source="UVNxHXpTc3Y-ItivbAYO-120" target="UVNxHXpTc3Y-ItivbAYO-122">
          <mxGeometry width="50" height="50" relative="1" as="geometry">
            <mxPoint x="120" y="262" as="sourcePoint" />
            <mxPoint x="170" y="212" as="targetPoint" />
          </mxGeometry>
        </mxCell>
        <mxCell id="UVNxHXpTc3Y-ItivbAYO-124" value="Có" style="edgeLabel;html=1;align=center;verticalAlign=middle;resizable=0;points=[];" vertex="1" connectable="0" parent="UVNxHXpTc3Y-ItivbAYO-123">
          <mxGeometry x="-0.0455" relative="1" as="geometry">
            <mxPoint as="offset" />
          </mxGeometry>
        </mxCell>
        <mxCell id="UVNxHXpTc3Y-ItivbAYO-125" value="" style="edgeStyle=orthogonalEdgeStyle;rounded=0;orthogonalLoop=1;jettySize=auto;html=1;strokeColor=#FF3333;" edge="1" parent="UVNxHXpTc3Y-ItivbAYO-116" source="UVNxHXpTc3Y-ItivbAYO-127" target="UVNxHXpTc3Y-ItivbAYO-129">
          <mxGeometry relative="1" as="geometry" />
        </mxCell>
        <mxCell id="UVNxHXpTc3Y-ItivbAYO-126" value="&lt;font style=&quot;color: rgb(255, 51, 51);&quot;&gt;Không&lt;/font&gt;" style="edgeLabel;html=1;align=center;verticalAlign=middle;resizable=0;points=[];" vertex="1" connectable="0" parent="UVNxHXpTc3Y-ItivbAYO-125">
          <mxGeometry x="-0.3727" y="1" relative="1" as="geometry">
            <mxPoint as="offset" />
          </mxGeometry>
        </mxCell>
        <mxCell id="UVNxHXpTc3Y-ItivbAYO-127" value="Đã tồn tại ?" style="rhombus;whiteSpace=wrap;html=1;rounded=1;fillColor=#FFFF66;" vertex="1" parent="UVNxHXpTc3Y-ItivbAYO-116">
          <mxGeometry x="70" y="210" width="80" height="80" as="geometry" />
        </mxCell>
        <mxCell id="UVNxHXpTc3Y-ItivbAYO-128" value="" style="edgeStyle=orthogonalEdgeStyle;rounded=0;orthogonalLoop=1;jettySize=auto;html=1;" edge="1" parent="UVNxHXpTc3Y-ItivbAYO-116" source="UVNxHXpTc3Y-ItivbAYO-129" target="UVNxHXpTc3Y-ItivbAYO-130">
          <mxGeometry relative="1" as="geometry" />
        </mxCell>
        <mxCell id="UVNxHXpTc3Y-ItivbAYO-129" value="Tạo tài khoản mới với vai trò ROLE_USER" style="whiteSpace=wrap;html=1;rounded=1;" vertex="1" parent="UVNxHXpTc3Y-ItivbAYO-116">
          <mxGeometry x="50" y="350" width="120" height="42" as="geometry" />
        </mxCell>
        <mxCell id="UVNxHXpTc3Y-ItivbAYO-130" value="Hiển thị thông báo đăng ký thành công" style="whiteSpace=wrap;html=1;rounded=1;" vertex="1" parent="UVNxHXpTc3Y-ItivbAYO-116">
          <mxGeometry x="241" y="350" width="120" height="40" as="geometry" />
        </mxCell>
        <mxCell id="UVNxHXpTc3Y-ItivbAYO-131" value="Chuyển hướng đến trang đăng nhập" style="rounded=1;whiteSpace=wrap;html=1;" vertex="1" parent="UVNxHXpTc3Y-ItivbAYO-116">
          <mxGeometry x="40" y="430" width="120" height="40" as="geometry" />
        </mxCell>
        <mxCell id="UVNxHXpTc3Y-ItivbAYO-132" value="" style="endArrow=classic;html=1;rounded=0;exitX=0.5;exitY=1;exitDx=0;exitDy=0;entryX=1;entryY=0.5;entryDx=0;entryDy=0;" edge="1" parent="UVNxHXpTc3Y-ItivbAYO-116" source="UVNxHXpTc3Y-ItivbAYO-130" target="UVNxHXpTc3Y-ItivbAYO-131">
          <mxGeometry width="50" height="50" relative="1" as="geometry">
            <mxPoint x="110" y="282" as="sourcePoint" />
            <mxPoint x="160" y="232" as="targetPoint" />
            <Array as="points">
              <mxPoint x="300" y="452" />
            </Array>
          </mxGeometry>
        </mxCell>
        <mxCell id="UVNxHXpTc3Y-ItivbAYO-133" value="" style="edgeStyle=orthogonalEdgeStyle;rounded=0;orthogonalLoop=1;jettySize=auto;html=1;" edge="1" parent="UVNxHXpTc3Y-ItivbAYO-116" source="UVNxHXpTc3Y-ItivbAYO-134" target="UVNxHXpTc3Y-ItivbAYO-135">
          <mxGeometry relative="1" as="geometry" />
        </mxCell>
        <mxCell id="UVNxHXpTc3Y-ItivbAYO-134" value="Xác thực thông tin đăng nhập" style="rounded=1;whiteSpace=wrap;html=1;" vertex="1" parent="UVNxHXpTc3Y-ItivbAYO-116">
          <mxGeometry x="40" y="512" width="90" height="38" as="geometry" />
        </mxCell>
        <mxCell id="UVNxHXpTc3Y-ItivbAYO-135" value="Thông tin đúng ?" style="rhombus;whiteSpace=wrap;html=1;rounded=1;fillColor=#FFFF66;" vertex="1" parent="UVNxHXpTc3Y-ItivbAYO-116">
          <mxGeometry x="215" y="491" width="80" height="80" as="geometry" />
        </mxCell>
        <mxCell id="UVNxHXpTc3Y-ItivbAYO-136" value="Tạo token JWT" style="rounded=1;whiteSpace=wrap;html=1;" vertex="1" parent="UVNxHXpTc3Y-ItivbAYO-116">
          <mxGeometry x="280" y="592" width="80" height="38" as="geometry" />
        </mxCell>
        <mxCell id="UVNxHXpTc3Y-ItivbAYO-137" value="" style="endArrow=classic;html=1;rounded=0;exitX=1;exitY=0.5;exitDx=0;exitDy=0;entryX=0.5;entryY=0;entryDx=0;entryDy=0;" edge="1" parent="UVNxHXpTc3Y-ItivbAYO-116" source="UVNxHXpTc3Y-ItivbAYO-135" target="UVNxHXpTc3Y-ItivbAYO-136">
          <mxGeometry width="50" height="50" relative="1" as="geometry">
            <mxPoint x="160" y="572" as="sourcePoint" />
            <mxPoint x="210" y="522" as="targetPoint" />
            <Array as="points">
              <mxPoint x="320" y="531" />
            </Array>
          </mxGeometry>
        </mxCell>
        <mxCell id="UVNxHXpTc3Y-ItivbAYO-138" value="" style="edgeStyle=orthogonalEdgeStyle;rounded=0;orthogonalLoop=1;jettySize=auto;html=1;" edge="1" parent="UVNxHXpTc3Y-ItivbAYO-116" source="UVNxHXpTc3Y-ItivbAYO-139" target="UVNxHXpTc3Y-ItivbAYO-140">
          <mxGeometry relative="1" as="geometry" />
        </mxCell>
        <mxCell id="UVNxHXpTc3Y-ItivbAYO-139" value="Lưu token vào localStorage" style="rounded=1;whiteSpace=wrap;html=1;" vertex="1" parent="UVNxHXpTc3Y-ItivbAYO-116">
          <mxGeometry x="160" y="592" width="80" height="38" as="geometry" />
        </mxCell>
        <mxCell id="UVNxHXpTc3Y-ItivbAYO-140" value="Chuyển hướng đến trang chủ" style="rounded=1;whiteSpace=wrap;html=1;" vertex="1" parent="UVNxHXpTc3Y-ItivbAYO-116">
          <mxGeometry x="20" y="592" width="100" height="38" as="geometry" />
        </mxCell>
        <mxCell id="UVNxHXpTc3Y-ItivbAYO-141" value="" style="endArrow=classic;html=1;rounded=0;exitX=0;exitY=0.5;exitDx=0;exitDy=0;entryX=1;entryY=0.5;entryDx=0;entryDy=0;" edge="1" parent="UVNxHXpTc3Y-ItivbAYO-116" source="UVNxHXpTc3Y-ItivbAYO-136" target="UVNxHXpTc3Y-ItivbAYO-139">
          <mxGeometry width="50" height="50" relative="1" as="geometry">
            <mxPoint x="160" y="572" as="sourcePoint" />
            <mxPoint x="210" y="522" as="targetPoint" />
          </mxGeometry>
        </mxCell>
        <mxCell id="UVNxHXpTc3Y-ItivbAYO-142" value="" style="edgeStyle=orthogonalEdgeStyle;rounded=0;orthogonalLoop=1;jettySize=auto;html=1;" edge="1" parent="1" source="UVNxHXpTc3Y-ItivbAYO-102" target="UVNxHXpTc3Y-ItivbAYO-117">
          <mxGeometry relative="1" as="geometry">
            <Array as="points">
              <mxPoint x="760" y="186" />
              <mxPoint x="760" y="186" />
            </Array>
          </mxGeometry>
        </mxCell>
        <mxCell id="UVNxHXpTc3Y-ItivbAYO-143" value="" style="endArrow=classic;html=1;rounded=0;entryX=0.5;entryY=0;entryDx=0;entryDy=0;" edge="1" parent="1" target="UVNxHXpTc3Y-ItivbAYO-104">
          <mxGeometry width="50" height="50" relative="1" as="geometry">
            <mxPoint x="910" y="210" as="sourcePoint" />
            <mxPoint x="740" y="270" as="targetPoint" />
            <Array as="points">
              <mxPoint x="910" y="220" />
              <mxPoint x="542" y="220" />
            </Array>
          </mxGeometry>
        </mxCell>
        <mxCell id="UVNxHXpTc3Y-ItivbAYO-144" value="" style="edgeStyle=orthogonalEdgeStyle;rounded=0;orthogonalLoop=1;jettySize=auto;html=1;" edge="1" parent="1" source="UVNxHXpTc3Y-ItivbAYO-105" target="UVNxHXpTc3Y-ItivbAYO-119">
          <mxGeometry relative="1" as="geometry" />
        </mxCell>
        <mxCell id="UVNxHXpTc3Y-ItivbAYO-145" value="" style="endArrow=classic;html=1;rounded=0;entryX=1;entryY=0.5;entryDx=0;entryDy=0;exitX=0.5;exitY=1;exitDx=0;exitDy=0;strokeColor=#FF3333;" edge="1" parent="1" source="UVNxHXpTc3Y-ItivbAYO-120" target="UVNxHXpTc3Y-ItivbAYO-106">
          <mxGeometry width="50" height="50" relative="1" as="geometry">
            <mxPoint x="840" y="410" as="sourcePoint" />
            <mxPoint x="890" y="360" as="targetPoint" />
            <Array as="points">
              <mxPoint x="1020" y="330" />
            </Array>
          </mxGeometry>
        </mxCell>
        <mxCell id="UVNxHXpTc3Y-ItivbAYO-146" value="&lt;font style=&quot;color: rgb(255, 51, 51);&quot;&gt;Không&lt;/font&gt;" style="edgeLabel;html=1;align=center;verticalAlign=middle;resizable=0;points=[];" vertex="1" connectable="0" parent="UVNxHXpTc3Y-ItivbAYO-145">
          <mxGeometry x="-0.3402" y="1" relative="1" as="geometry">
            <mxPoint as="offset" />
          </mxGeometry>
        </mxCell>
        <mxCell id="UVNxHXpTc3Y-ItivbAYO-147" value="" style="edgeStyle=orthogonalEdgeStyle;rounded=0;orthogonalLoop=1;jettySize=auto;html=1;" edge="1" parent="1" source="UVNxHXpTc3Y-ItivbAYO-127" target="UVNxHXpTc3Y-ItivbAYO-108">
          <mxGeometry relative="1" as="geometry" />
        </mxCell>
        <mxCell id="UVNxHXpTc3Y-ItivbAYO-148" value="" style="endArrow=classic;html=1;rounded=0;exitX=0;exitY=0.5;exitDx=0;exitDy=0;" edge="1" parent="1" source="UVNxHXpTc3Y-ItivbAYO-131" target="UVNxHXpTc3Y-ItivbAYO-111">
          <mxGeometry width="50" height="50" relative="1" as="geometry">
            <mxPoint x="700" y="420" as="sourcePoint" />
            <mxPoint x="650" y="588" as="targetPoint" />
          </mxGeometry>
        </mxCell>
        <mxCell id="UVNxHXpTc3Y-ItivbAYO-149" value="" style="endArrow=classic;html=1;rounded=0;entryX=0;entryY=0.5;entryDx=0;entryDy=0;exitX=0.5;exitY=1;exitDx=0;exitDy=0;" edge="1" parent="1" source="UVNxHXpTc3Y-ItivbAYO-112" target="UVNxHXpTc3Y-ItivbAYO-134">
          <mxGeometry width="50" height="50" relative="1" as="geometry">
            <mxPoint x="750" y="530" as="sourcePoint" />
            <mxPoint x="800" y="480" as="targetPoint" />
            <Array as="points">
              <mxPoint x="536" y="669" />
            </Array>
          </mxGeometry>
        </mxCell>
        <mxCell id="UVNxHXpTc3Y-ItivbAYO-150" value="" style="endArrow=classic;html=1;rounded=0;exitX=0.5;exitY=1;exitDx=0;exitDy=0;entryX=1;entryY=0.5;entryDx=0;entryDy=0;strokeColor=#FF3333;" edge="1" parent="1" source="UVNxHXpTc3Y-ItivbAYO-135" target="UVNxHXpTc3Y-ItivbAYO-113">
          <mxGeometry width="50" height="50" relative="1" as="geometry">
            <mxPoint x="730" y="710" as="sourcePoint" />
            <mxPoint x="730" y="830" as="targetPoint" />
          </mxGeometry>
        </mxCell>
        <mxCell id="UVNxHXpTc3Y-ItivbAYO-151" value="&lt;font style=&quot;color: rgb(255, 51, 51);&quot;&gt;Không&lt;/font&gt;" style="edgeLabel;html=1;align=center;verticalAlign=middle;resizable=0;points=[];" vertex="1" connectable="0" parent="UVNxHXpTc3Y-ItivbAYO-150">
          <mxGeometry x="-0.576" y="3" relative="1" as="geometry">
            <mxPoint as="offset" />
          </mxGeometry>
        </mxCell>
        <mxCell id="UVNxHXpTc3Y-ItivbAYO-152" value="" style="endArrow=classic;html=1;rounded=0;exitX=0;exitY=0.5;exitDx=0;exitDy=0;entryX=1;entryY=0.5;entryDx=0;entryDy=0;" edge="1" parent="1" source="UVNxHXpTc3Y-ItivbAYO-140" target="UVNxHXpTc3Y-ItivbAYO-115">
          <mxGeometry width="50" height="50" relative="1" as="geometry">
            <mxPoint x="980" y="680" as="sourcePoint" />
            <mxPoint x="1030" y="630" as="targetPoint" />
          </mxGeometry>
        </mxCell>
      </root>
    </mxGraphModel>
  </diagram>
</mxfile>
